<?xml version="1.0" encoding="UTF-8" standalone="no"?>
<!DOCTYPE svg PUBLIC "-//W3C//DTD SVG 20010904//EN"
              "http://www.w3.org/TR/2001/REC-SVG-20010904/DTD/svg10.dtd">

<svg xmlns="http://www.w3.org/2000/svg"
     width="110" height="110">
  <path fill="none" stroke="black" stroke-width="3"
        d="M 55.00,5.00
           C 55.00,5.00 55.00,30.00 55.00,30.00
             55.00,33.45 57.80,36.25 61.25,36.25
             64.70,36.25 67.50,33.45 67.50,30.00
             67.50,26.55 64.70,23.75 61.25,23.75
             57.80,23.75 55.00,26.55 55.00,30.00
             55.00,30.00 55.00,55.00 55.00,55.00M 55.00,5.00
           C 55.00,5.00 55.00,30.00 55.00,30.00
             55.00,33.45 52.20,36.25 48.75,36.25
             45.30,36.25 42.50,33.45 42.50,30.00
             42.50,26.55 45.30,23.75 48.75,23.75
             52.20,23.75 55.00,26.55 55.00,30.00
             55.00,30.00 55.00,55.00 55.00,55.00" />
</svg>
